<svg width="20" height="21" viewBox="0 0 20 21" fill="none" xmlns="http://www.w3.org/2000/svg">
<path d="M7.59898 10.6429L15.5212 18.2149C15.6836 18.3524 15.811 18.5236 15.8935 18.7154C15.9759 18.9072 16.0113 19.1146 15.9969 19.3215C15.9824 19.5284 15.9186 19.7294 15.8102 19.9091C15.7018 20.0888 15.5518 20.2423 15.3717 20.3579C15.0718 20.5655 14.7047 20.665 14.3354 20.6388C13.9662 20.6127 13.6185 20.4626 13.3538 20.2151L4.45999 11.643C4.31501 11.5158 4.19926 11.3613 4.12007 11.1891C4.04089 11.017 4 10.831 4 10.6429C4 10.4549 4.04089 10.2688 4.12007 10.0967C4.19926 9.92453 4.31501 9.76998 4.45999 9.64284L13.3538 1.07075C13.6185 0.82325 13.9662 0.673159 14.3354 0.647014C14.7047 0.62087 15.0718 0.720356 15.3717 0.927885C15.5518 1.04351 15.7018 1.19705 15.8102 1.37672C15.9186 1.55638 15.9824 1.7574 15.9969 1.96432C16.0113 2.17125 15.9759 2.37859 15.8935 2.57041C15.811 2.76224 15.6836 2.93345 15.5212 3.07091L7.59898 10.6429Z" fill="white"/>
</svg>
