<svg width="20" height="21" viewBox="0 0 20 21" fill="none" xmlns="http://www.w3.org/2000/svg">
<path d="M10 0.0428467C8.02219 0.0428467 6.08879 0.629336 4.4443 1.72815C2.79981 2.82696 1.51809 4.38875 0.761209 6.21601C0.0043329 8.04327 -0.1937 10.0539 0.192152 11.9937C0.578004 13.9336 1.53041 15.7154 2.92894 17.1139C4.32746 18.5124 6.10929 19.4648 8.0491 19.8507C9.98891 20.2365 11.9996 20.0385 13.8268 19.2816C15.6541 18.5248 17.2159 17.243 18.3147 15.5985C19.4135 13.9541 20 12.0207 20 10.0428C19.9972 7.39155 18.9427 4.84965 17.0679 2.9749C15.1932 1.10014 12.6513 0.0456702 10 0.0428467ZM10 17.5428C8.51664 17.5428 7.06659 17.103 5.83323 16.2789C4.59986 15.4548 3.63856 14.2834 3.07091 12.913C2.50325 11.5425 2.35473 10.0345 2.64411 8.57967C2.9335 7.12481 3.64781 5.78844 4.6967 4.73955C5.7456 3.69065 7.08197 2.97635 8.53683 2.68696C9.99168 2.39757 11.4997 2.54609 12.8701 3.11375C14.2406 3.68141 15.4119 4.6427 16.236 5.87607C17.0601 7.10944 17.5 8.55949 17.5 10.0428C17.4978 12.0313 16.707 13.9377 15.3009 15.3438C13.8949 16.7498 11.9885 17.5407 10 17.5428Z" fill="white"/>
<path d="M13.384 6.65905C13.2679 6.54295 13.1301 6.45086 12.9785 6.38802C12.8268 6.32519 12.6643 6.29285 12.5002 6.29285C12.336 6.29285 12.1735 6.32519 12.0218 6.38802C11.8702 6.45086 11.7324 6.54295 11.6164 6.65905L10.0002 8.27526L8.38396 6.65905C8.14933 6.42573 7.83177 6.29497 7.50088 6.29543C7.17 6.29589 6.8528 6.42754 6.61883 6.66151C6.38486 6.89548 6.25321 7.21268 6.25275 7.54356C6.25229 7.87445 6.38305 8.19201 6.61637 8.42664L8.23258 10.0428L6.61637 11.6591C6.49978 11.775 6.40721 11.9128 6.34397 12.0646C6.28073 12.2164 6.24806 12.3791 6.24783 12.5436C6.2476 12.708 6.27982 12.8709 6.34264 13.0228C6.40546 13.1748 6.49764 13.3128 6.61391 13.4291C6.73018 13.5454 6.86825 13.6376 7.0202 13.7004C7.17216 13.7632 7.33502 13.7954 7.49944 13.7952C7.66387 13.7949 7.82664 13.7623 7.97842 13.699C8.1302 13.6358 8.26801 13.5432 8.38396 13.4266L10.0002 11.8104L11.6164 13.4266C11.851 13.66 12.1686 13.7907 12.4994 13.7903C12.8303 13.7898 13.1475 13.6582 13.3815 13.4242C13.6155 13.1902 13.7471 12.873 13.7476 12.5421C13.748 12.2112 13.6173 11.8937 13.384 11.6591L11.7677 10.0428L13.384 8.42664C13.5001 8.3106 13.5921 8.17282 13.655 8.02117C13.7178 7.86953 13.7502 7.70699 13.7502 7.54284C13.7502 7.3787 13.7178 7.21616 13.655 7.06452C13.5921 6.91287 13.5001 6.77509 13.384 6.65905Z" fill="white"/>
</svg>
