<svg width="20" height="17" viewBox="0 0 20 17" fill="none" xmlns="http://www.w3.org/2000/svg">
<path fill-rule="evenodd" clip-rule="evenodd" d="M0 3.04968C0 1.94511 0.895431 1.04968 2 1.04968H18C19.1046 1.04968 20 1.94511 20 3.04968V13.6211C20 14.7257 19.1046 15.6211 18 15.6211H2C0.895431 15.6211 0 14.7257 0 13.6211V3.04968ZM17.646 12.7713C17.646 12.8818 17.5564 12.9713 17.446 12.9713H2.35189L7.28187 7.59688C7.36975 7.50198 7.48852 7.44873 7.6123 7.44873C7.73608 7.44873 7.85485 7.50198 7.94273 7.59688L10.2822 9.65975L13.3504 6.49611C13.4383 6.40121 13.5571 6.34796 13.6808 6.34796C13.8046 6.34796 13.9234 6.40121 14.0113 6.49611L17.5967 10.6053C17.6285 10.6418 17.646 10.6885 17.646 10.7368V12.7713ZM4.41071 6.62396C5.54777 6.62396 6.46953 5.67257 6.46953 4.49896C6.46953 3.32536 5.54777 2.37396 4.41071 2.37396C3.27365 2.37396 2.35189 3.32536 2.35189 4.49896C2.35189 5.67257 3.27365 6.62396 4.41071 6.62396Z" fill="white"/>
</svg>
