<svg width="20" height="21" viewBox="0 0 20 21" fill="none" xmlns="http://www.w3.org/2000/svg">
<path d="M16.278 19.6361H3.74585V20.8929H16.278V19.6361Z" fill="white"/>
<path fill-rule="evenodd" clip-rule="evenodd" d="M15.5874 4.94722C15.0222 2.62096 12.9231 0.892914 10.4154 0.892914C7.83382 0.892914 5.68457 2.72276 5.19456 5.15333C4.8587 5.06536 4.51281 5.00378 4.15064 5.00378C1.85726 5.00378 0 6.86629 0 9.16616C0 11.4648 1.48756 13.3286 3.78094 13.3286C3.80475 13.3286 3.82605 13.3223 3.85112 13.3223V18.3254H16.2266V14.0726C18.5864 13.8966 20 11.9248 20 9.51429C19.9987 7.03973 18.035 5.03142 15.5874 4.94722ZM9.88658 3.04072C8.83138 3.72439 8.15339 4.80144 8.15339 6.01672H6.52296C6.52296 4.25977 7.94285 2.78559 9.86152 2.37212C10.2087 2.29923 10.428 2.68882 9.88658 3.04072Z" fill="white"/>
</svg>
