<svg width="20" height="21" viewBox="0 0 20 21" fill="none" xmlns="http://www.w3.org/2000/svg">
<path fill-rule="evenodd" clip-rule="evenodd" d="M8.75 9.00702V6.50702C8.75 5.81667 9.30962 5.25702 10 5.25702C10.6904 5.25702 11.25 5.81667 11.25 6.50702V9.00702H13.75C14.4404 9.00702 15 9.56664 15 10.257C15 10.9474 14.4404 11.507 13.75 11.507H11.25V14.007C11.25 14.6974 10.6904 15.257 10 15.257C9.30962 15.257 8.75 14.6974 8.75 14.007V11.507H6.25C5.55965 11.507 5 10.9474 5 10.257C5 9.56664 5.55965 9.00702 6.25 9.00702H8.75ZM2.5 0.257019H17.5C18.8808 0.257019 20 1.37631 20 2.75702V17.757C20 19.1378 18.8808 20.257 17.5 20.257H2.5C1.11929 20.257 0 19.1378 0 17.757V2.75702C0 1.37631 1.11929 0.257019 2.5 0.257019ZM2.5 2.75702V17.757H17.5V2.75702H2.5Z" fill="white"/>
</svg>
