<svg width="20" height="21" viewBox="0 0 20 21" fill="none" xmlns="http://www.w3.org/2000/svg">
<path d="M8.14701 20.307C7.64245 20.307 7.21693 19.9311 7.15466 19.4304L6.93951 17.7006C6.89404 17.3351 6.64509 17.0342 6.32673 16.8488C6.30321 16.8351 6.27987 16.8212 6.25672 16.807C6.22604 16.7883 6.19547 16.7693 6.16501 16.7502C5.8676 16.563 5.49842 16.5157 5.17471 16.6523L3.55061 17.3382C3.08557 17.5345 2.54708 17.3535 2.2951 16.9161L0.439078 13.6942C0.188013 13.2584 0.299724 12.7039 0.699963 12.3993L2.29227 11.1874C2.45893 11.0606 2.53731 10.8534 2.53731 10.644V9.96901C2.53731 9.76019 2.45923 9.55365 2.29307 9.42719L0.699962 8.21473C0.299724 7.91012 0.188013 7.35563 0.439078 6.91981L2.2951 3.69793C2.54708 3.26051 3.08557 3.07948 3.55061 3.27586L5.17471 3.96166C5.49842 4.09836 5.86733 4.05034 6.16741 3.86752C6.20092 3.8471 6.23467 3.82693 6.26866 3.80701C6.2944 3.79191 6.32015 3.7771 6.34589 3.76257C6.65802 3.58634 6.89296 3.28759 6.9372 2.93189L7.15466 1.18358C7.21693 0.682882 7.64245 0.307007 8.14701 0.307007H11.853C12.3575 0.307007 12.7831 0.682881 12.8453 1.18358L13.0605 2.91337C13.106 3.27892 13.3548 3.57999 13.6734 3.76484C13.6972 3.77864 13.7209 3.7927 13.7443 3.80701C13.7747 3.82564 13.805 3.84449 13.8352 3.86355C14.1324 4.05106 14.5016 4.09836 14.8253 3.96166L16.4494 3.27586C16.9144 3.07948 17.4529 3.26051 17.7049 3.69793L19.5609 6.91981C19.812 7.35563 19.7003 7.91012 19.3 8.21473L17.7069 9.42719C17.5408 9.55365 17.4627 9.76019 17.4627 9.96901V10.644C17.4627 10.8507 17.5212 11.0644 17.6857 11.1896L19.2752 12.3993C19.6754 12.7039 19.7871 13.2584 19.536 13.6942L17.6814 16.9137C17.4288 17.3522 16.8886 17.5329 16.4231 17.3346L14.8265 16.6547C14.5022 16.5166 14.1319 16.5642 13.8309 16.7475C13.7979 16.7676 13.7648 16.7874 13.7313 16.807C13.7056 16.8221 13.6799 16.8369 13.6541 16.8514C13.342 17.0277 13.107 17.3264 13.0628 17.6821L12.8453 19.4304C12.7831 19.9311 12.3575 20.307 11.853 20.307H8.14701ZM10.0498 13.807C11.0116 13.807 11.8325 13.4653 12.5124 12.782C13.1924 12.0987 13.5323 11.2737 13.5323 10.307C13.5323 9.34034 13.1924 8.51534 12.5124 7.83201C11.8325 7.14867 11.0116 6.80701 10.0498 6.80701C9.07131 6.80701 8.2461 7.14867 7.57413 7.83201C6.90282 8.51534 6.56717 9.34034 6.56717 10.307C6.56717 11.2737 6.90282 12.0987 7.57413 12.782C8.2461 13.4653 9.07131 13.807 10.0498 13.807Z" fill="white"/>
</svg>
