<svg width="20" height="21" viewBox="0 0 20 21" fill="none" xmlns="http://www.w3.org/2000/svg">
<path d="M10 8.3419L2.428 16.2641C2.29054 16.4266 2.11932 16.5539 1.9275 16.6364C1.73567 16.7188 1.52834 16.7542 1.32141 16.7398C1.11448 16.7253 0.913471 16.6615 0.733805 16.5531C0.554138 16.4447 0.400599 16.2947 0.284973 16.1146C0.0774441 15.8147 -0.0220432 15.4476 0.0041008 15.0784C0.0302448 14.7091 0.180336 14.3614 0.427839 14.0967L8.99992 5.20291C9.12707 5.05793 9.28162 4.94218 9.45377 4.86299C9.62593 4.78381 9.81194 4.74292 10 4.74292C10.1881 4.74292 10.3741 4.78381 10.5462 4.86299C10.7184 4.94218 10.8729 5.05793 11.0001 5.20291L19.5722 14.0967C19.8197 14.3614 19.9698 14.7091 19.9959 15.0784C20.022 15.4476 19.9226 15.8147 19.715 16.1146C19.5994 16.2947 19.4459 16.4447 19.2662 16.5531C19.0865 16.6615 18.8855 16.7253 18.6786 16.7398C18.4717 16.7542 18.2643 16.7188 18.0725 16.6364C17.8807 16.5539 17.7095 16.4266 17.572 16.2641L10 8.3419Z" fill="white"/>
</svg>
