<svg width="30" height="31" viewBox="0 0 30 31" fill="none" xmlns="http://www.w3.org/2000/svg">
<g clip-path="url(#clip0_914_2874)">
<path fill-rule="evenodd" clip-rule="evenodd" d="M11.25 11.607V3.48198C11.25 1.75612 12.9289 0.356995 15 0.356995C17.0711 0.356995 18.75 1.75612 18.75 3.48198V11.607H26.8751C28.6009 11.607 30 13.2859 30 15.357C30 17.4281 28.6009 19.107 26.8751 19.107H18.75V27.2321C18.75 28.9579 17.0711 30.357 15 30.357C12.9289 30.357 11.25 28.9579 11.25 27.2321V19.107H3.12499C1.39912 19.107 0 17.4281 0 15.357C0 13.2859 1.39912 11.607 3.12499 11.607H11.25Z" fill="white"/>
</g>
<defs>
<clipPath id="clip0_914_2874">
<rect width="30" height="30" fill="white" transform="translate(0 0.356995)"/>
</clipPath>
</defs>
</svg>
