<svg width="24" height="18" viewBox="0 0 24 18" fill="none" xmlns="http://www.w3.org/2000/svg">
<path fill-rule="evenodd" clip-rule="evenodd" d="M2.5 4.5H4.65483L6.66667 2.48816C6.97922 2.17559 7.40315 2 7.84517 2H12.1548C12.5968 2 13.0207 2.17559 13.3333 2.48816L15.3452 4.5H17.5C18.8807 4.5 20 5.61929 20 7V14.5C20 15.8808 18.8807 17 17.5 17H2.5C1.11929 17 0 15.8808 0 14.5V7C0 5.61929 1.11929 4.5 2.5 4.5ZM12.5 10.3333C12.5 11.7141 11.3808 12.8333 10 12.8333C8.61925 12.8333 7.5 11.7141 7.5 10.3333C7.5 8.95258 8.61925 7.83333 10 7.83333C11.3808 7.83333 12.5 8.95258 12.5 10.3333ZM14.1667 10.3333C14.1667 12.6345 12.3012 14.5 10 14.5C7.69882 14.5 5.83333 12.6345 5.83333 10.3333C5.83333 8.03217 7.69882 6.16667 10 6.16667C12.3012 6.16667 14.1667 8.03217 14.1667 10.3333Z" fill="white"/>
<path fill-rule="evenodd" clip-rule="evenodd" d="M21.0874 2.10974V0.812789C21.0874 0.537299 21.3482 0.313965 21.6699 0.313965C21.9917 0.313965 22.2525 0.537299 22.2525 0.812789V2.10974H23.5146C23.7827 2.10974 24 2.37773 24 2.70833C24 3.03893 23.7827 3.30692 23.5146 3.30692H22.2525V4.60389C22.2525 4.87936 21.9917 5.1027 21.6699 5.1027C21.3482 5.1027 21.0874 4.87936 21.0874 4.60389V3.30692H19.8253C19.5572 3.30692 19.3398 3.03893 19.3398 2.70833C19.3398 2.37773 19.5572 2.10974 19.8253 2.10974H21.0874Z" fill="white"/>
</svg>
