<svg width="19" height="21" viewBox="0 0 19 21" fill="none" xmlns="http://www.w3.org/2000/svg">
<path d="M8 3.29279C8 3.02757 8.11589 2.77322 8.32218 2.58568C8.52847 2.39814 8.80826 2.29279 9.1 2.29279H17.9C18.1917 2.29279 18.4715 2.39814 18.6778 2.58568C18.8841 2.77322 19 3.02757 19 3.29279C19 3.558 18.8841 3.81236 18.6778 3.99989C18.4715 4.18743 18.1917 4.29279 17.9 4.29279H9.1C8.80826 4.29279 8.52847 4.18743 8.32218 3.99989C8.11589 3.81236 8 3.558 8 3.29279Z" fill="white"/>
<path d="M8 10.2928C8 10.0276 8.11589 9.77322 8.32218 9.58568C8.52847 9.39814 8.80826 9.29279 9.1 9.29279H17.9C18.1917 9.29279 18.4715 9.39814 18.6778 9.58568C18.8841 9.77322 19 10.0276 19 10.2928C19 10.558 18.8841 10.8124 18.6778 10.9999C18.4715 11.1874 18.1917 11.2928 17.9 11.2928H9.1C8.80826 11.2928 8.52847 11.1874 8.32218 10.9999C8.11589 10.8124 8 10.558 8 10.2928Z" fill="white"/>
<path d="M8 17.2928C8 17.0276 8.11589 16.7732 8.32218 16.5857C8.52847 16.3981 8.80826 16.2928 9.1 16.2928H17.9C18.1917 16.2928 18.4715 16.3981 18.6778 16.5857C18.8841 16.7732 19 17.0276 19 17.2928C19 17.558 18.8841 17.8124 18.6778 17.9999C18.4715 18.1874 18.1917 18.2928 17.9 18.2928H9.1C8.80826 18.2928 8.52847 18.1874 8.32218 17.9999C8.11589 17.8124 8 17.558 8 17.2928Z" fill="white"/>
<path d="M3.00476 0.292865C2.87617 0.299185 2.75091 0.341569 2.63998 0.416294C2.52904 0.491019 2.43583 0.595798 2.36854 0.721425L0.0856163 5.00703C0.0292666 5.14068 0 5.28717 0 5.43559C0 5.584 0.0292666 5.73049 0.0856163 5.86415C0.147256 5.99542 0.239178 6.10479 0.351364 6.18036C0.46355 6.25593 0.591696 6.29479 0.72184 6.29271H5.25025C5.37884 6.28639 5.5041 6.244 5.61503 6.16928C5.72597 6.09455 5.81918 5.98977 5.88648 5.86415C5.96049 5.73729 6 5.58815 6 5.43559C6 5.28302 5.96049 5.13388 5.88648 5.00703L3.64098 0.721425C3.57934 0.590155 3.48742 0.480776 3.37523 0.405208C3.26305 0.329639 3.1349 0.29078 3.00476 0.292865Z" fill="white"/>
<path d="M3 13.2928C2.40666 13.2928 1.82664 13.1168 1.33329 12.7872C0.839943 12.4576 0.455426 11.989 0.228363 11.4408C0.00129985 10.8927 -0.0581101 10.2895 0.0576455 9.70752C0.173401 9.12557 0.459123 8.59102 0.878681 8.17147C1.29824 7.75191 1.83279 7.46619 2.41473 7.35043C2.99667 7.23468 3.59987 7.29409 4.14805 7.52115C4.69623 7.74821 5.16476 8.13273 5.49441 8.62608C5.82405 9.11942 6 9.69944 6 10.2928C6 11.0884 5.68393 11.8515 5.12132 12.4141C4.55871 12.9767 3.79565 13.2928 3 13.2928Z" fill="white"/>
<path d="M4.76188 20.007H0.952375C0.69979 20.007 0.457549 19.9067 0.278944 19.7281C0.100339 19.5495 0 19.3072 0 19.0547V15.2452C0 14.9926 0.100339 14.7503 0.278944 14.5717C0.457549 14.3931 0.69979 14.2928 0.952375 14.2928H4.76188C5.01446 14.2928 5.2567 14.3931 5.43531 14.5717C5.61391 14.7503 5.71425 14.9926 5.71425 15.2452V19.0547C5.71425 19.3072 5.61391 19.5495 5.43531 19.7281C5.2567 19.9067 5.01446 20.007 4.76188 20.007Z" fill="white"/>
</svg>
