<svg width="20" height="21" viewBox="0 0 20 21" fill="none" xmlns="http://www.w3.org/2000/svg">
<path d="M10 0.992859C8.02219 0.992859 6.08879 1.57935 4.4443 2.67816C2.79981 3.77698 1.51809 5.33876 0.761209 7.16602C0.00433284 8.99328 -0.1937 11.0039 0.192152 12.9438C0.578004 14.8836 1.53041 16.6654 2.92894 18.0639C4.32746 19.4624 6.10929 20.4149 8.0491 20.8007C9.98891 21.1866 11.9996 20.9885 13.8268 20.2316C15.6541 19.4748 17.2159 18.193 18.3147 16.5486C19.4135 14.9041 20 12.9707 20 10.9929C19.9972 8.34156 18.9427 5.79966 17.0679 3.92491C15.1932 2.05016 12.6513 0.995682 10 0.992859ZM10 18.4929C8.51664 18.4929 7.06659 18.053 5.83323 17.2289C4.59986 16.4048 3.63856 15.2334 3.07091 13.863C2.50325 12.4925 2.35473 10.9845 2.64411 9.52968C2.9335 8.07482 3.64781 6.73845 4.6967 5.68956C5.7456 4.64066 7.08197 3.92636 8.53683 3.63697C9.99168 3.34758 11.4997 3.4961 12.8701 4.06376C14.2406 4.63142 15.4119 5.59271 16.236 6.82608C17.0601 8.05945 17.5 9.5095 17.5 10.9929C17.4978 12.9813 16.707 14.8877 15.3009 16.2938C13.8949 17.6998 11.9885 18.4907 10 18.4929Z" fill="white"/>
<path d="M14.7878 7.62774C14.6718 7.51164 14.534 7.41955 14.3824 7.35671C14.2307 7.29388 14.0682 7.26154 13.904 7.26154C13.7399 7.26154 13.5774 7.29388 13.4257 7.35671C13.2741 7.41955 13.1363 7.51164 13.0203 7.62774C10.4057 10.2423 11.1774 9.47056 8.02025 12.6277C7.90366 12.7437 7.81109 12.8815 7.74785 13.0333C7.68461 13.1851 7.65194 13.3478 7.65171 13.5123C7.65148 13.6767 7.6837 13.8395 7.74651 13.9915C7.80933 14.1435 7.90152 14.2815 8.01779 14.3978C8.13405 14.5141 8.27212 14.6062 8.42408 14.6691C8.57603 14.7319 8.73889 14.7641 8.90332 14.7639C9.06775 14.7636 9.23052 14.731 9.3823 14.6677C9.53408 14.6045 9.67189 14.5119 9.78784 14.3953C12.9271 11.256 12.1859 11.9973 14.7878 9.39532C14.9039 9.27928 14.996 9.14151 15.0589 8.98986C15.1217 8.83822 15.154 8.67568 15.154 8.51153C15.154 8.34739 15.1217 8.18485 15.0589 8.0332C14.996 7.88156 14.9039 7.74378 14.7878 7.62774Z" fill="white"/>
<path d="M7.50939 10.2676C7.39344 10.151 7.25563 10.0584 7.10385 9.99521C6.95207 9.93196 6.78931 9.89929 6.62488 9.89907C6.46045 9.89884 6.29759 9.93105 6.14563 9.99387C5.99368 10.0567 5.85561 10.1489 5.73934 10.2651C5.62307 10.3814 5.53089 10.5195 5.46807 10.6714C5.40525 10.8234 5.37303 10.9862 5.37326 11.1507C5.37349 11.3151 5.40616 11.4779 5.4694 11.6297C5.53265 11.7814 5.62521 11.9192 5.7418 12.0352C6.62272 12.9161 7.37487 13.8921 8.09947 14.4725C9.3823 13.6304 9.78784 12.8841 9.78784 12.6277C9.20847 11.9287 8.41924 11.1775 7.50939 10.2676Z" fill="white"/>
</svg>
