<svg width="20" height="21" viewBox="0 0 20 21" fill="none" xmlns="http://www.w3.org/2000/svg">
<path d="M18.4962 3.7695C19.3721 4.0773 20 4.91173 20 5.89282V15.8928C20 18.24 18.0972 20.1428 15.75 20.1428H5.75C4.76891 20.1428 3.93448 19.5149 3.62668 18.639L5.72396 18.6424L15.75 18.6428C17.2688 18.6428 18.5 17.4116 18.5 15.8928V5.89282L18.496 5.84184L18.4962 3.7695ZM15.2468 0.142822C16.4895 0.142822 17.4968 1.15018 17.4968 2.39282V15.3896C17.4968 16.6323 16.4895 17.6396 15.2468 17.6396H2.25C1.00736 17.6396 0 16.6323 0 15.3896V2.39282C0 1.15018 1.00736 0.142822 2.25 0.142822H15.2468ZM15.2468 1.64282H2.25C1.83579 1.64282 1.5 1.97861 1.5 2.39282V15.3896C1.5 15.8038 1.83579 16.1396 2.25 16.1396H15.2468C15.661 16.1396 15.9968 15.8038 15.9968 15.3896V2.39282C15.9968 1.97861 15.661 1.64282 15.2468 1.64282Z" fill="white"/>
</svg>
