<svg width="20" height="21" viewBox="0 0 20 21" fill="none" xmlns="http://www.w3.org/2000/svg">
<path d="M10 13.0939L17.572 5.17173C17.7095 5.00926 17.8807 4.8819 18.0725 4.79944C18.2643 4.71698 18.4717 4.68161 18.6786 4.69605C18.8855 4.71048 19.0865 4.77433 19.2662 4.8827C19.4459 4.99107 19.5994 5.14108 19.715 5.3212C19.9226 5.62115 20.022 5.9882 19.9959 6.35747C19.9698 6.72674 19.8197 7.07445 19.5722 7.33912L11.0001 16.2329C10.8729 16.3779 10.7184 16.4936 10.5462 16.5728C10.3741 16.652 10.1881 16.6929 10 16.6929C9.81194 16.6929 9.62593 16.652 9.45377 16.5728C9.28162 16.4936 9.12706 16.3779 8.99992 16.2329L0.42784 7.33912C0.180336 7.07445 0.0302448 6.72674 0.00410058 6.35747C-0.0220437 5.9882 0.0774426 5.62115 0.284972 5.3212C0.400597 5.14108 0.554138 4.99107 0.733804 4.8827C0.91347 4.77433 1.11448 4.71048 1.32141 4.69605C1.52834 4.68161 1.73567 4.71698 1.9275 4.79944C2.11932 4.8819 2.29054 5.00926 2.42799 5.17173L10 13.0939Z" fill="white"/>
</svg>
