<svg width="20" height="21" viewBox="0 0 20 21" fill="none" xmlns="http://www.w3.org/2000/svg">
<path d="M7.95453 0.242798C7.57799 0.242798 7.27271 0.522623 7.27271 0.867798C7.27271 1.21297 7.57799 1.4928 7.95453 1.4928H9.31817V18.9928H7.95453C7.57799 18.9928 7.27271 19.2726 7.27271 19.6178C7.27271 19.963 7.57799 20.2428 7.95453 20.2428H12.0454C12.422 20.2428 12.7273 19.963 12.7273 19.6178C12.7273 19.2726 12.422 18.9928 12.0454 18.9928H10.6818V1.4928H12.0454C12.422 1.4928 12.7273 1.21297 12.7273 0.867798C12.7273 0.522623 12.422 0.242798 12.0454 0.242798H7.95453Z" fill="white"/>
<path d="M2.95455 3.59246H8.40909V16.9258H2.95455C1.32279 16.9258 0 15.7132 0 14.2175V6.3008C0 4.80503 1.32279 3.59246 2.95455 3.59246Z" fill="white"/>
<path d="M17.0455 16.9258H11.5909V3.59246H17.0455C18.6772 3.59246 20 4.80503 20 6.3008V14.2175C20 15.7132 18.6772 16.9258 17.0455 16.9258Z" fill="white"/>
</svg>
