<svg width="18" height="19" viewBox="0 0 18 19" fill="none" xmlns="http://www.w3.org/2000/svg">
<path d="M17.2252 10.0025C17.2252 14.5451 13.5426 18.2276 9 18.2276C4.45737 18.2276 0.774834 14.5451 0.774834 10.0025C0.774834 5.45984 4.45737 1.77731 9 1.77731C13.5426 1.77731 17.2252 5.45984 17.2252 10.0025Z" fill="white"/>
<path fill-rule="evenodd" clip-rule="evenodd" d="M18 9.94287C18 14.9134 13.9705 18.9429 9 18.9429C4.02944 18.9429 0 14.9134 0 9.94287C0 4.97231 4.02944 0.942871 9 0.942871C13.9705 0.942871 18 4.97231 18 9.94287ZM7.875 13.3179C7.875 13.9392 8.3787 14.4429 9 14.4429C9.6213 14.4429 10.125 13.9392 10.125 13.3179V9.94287C10.125 9.32157 9.6213 8.81787 9 8.81787C8.3787 8.81787 7.875 9.32157 7.875 9.94287V13.3179ZM9 5.44287C8.3787 5.44287 7.875 5.94655 7.875 6.56787C7.875 7.18919 8.3787 7.69287 9 7.69287C9.6213 7.69287 10.125 7.18919 10.125 6.56787C10.125 5.94655 9.6213 5.44287 9 5.44287Z" fill="#E75050"/>
</svg>
