<svg width="20" height="21" viewBox="0 0 20 21" fill="none" xmlns="http://www.w3.org/2000/svg">
<path d="M18.4211 17.2635C19.2931 17.2635 20 18.0536 20 19.0282C20 19.9455 19.3738 20.6993 18.5731 20.7848L18.4211 20.7929H1.57895C0.706916 20.7929 0 20.0028 0 19.0282C0 18.1109 0.626195 17.3571 1.42688 17.2716L1.57895 17.2635H18.4211ZM18.4211 9.0282C19.2931 9.0282 20 9.81832 20 10.7929C20 11.7675 19.2931 12.5576 18.4211 12.5576H1.57895C0.706916 12.5576 0 11.7675 0 10.7929C0 9.81832 0.706916 9.0282 1.57895 9.0282H18.4211ZM18.4211 0.792908C19.2931 0.792908 20 1.58299 20 2.55761C20 3.53224 19.2931 4.32232 18.4211 4.32232H1.57895C0.706916 4.32232 0 3.53224 0 2.55761C0 1.58299 0.706916 0.792908 1.57895 0.792908H18.4211Z" fill="white"/>
</svg>
