<svg width="23" height="26" viewBox="0 0 23 26" fill="none" xmlns="http://www.w3.org/2000/svg">
<path d="M2 19.05C2 16.2886 4.23858 14.05 7 14.05H11C13.7614 14.05 16 16.2886 16 19.05V23.05C16 24.1546 15.1046 25.05 14 25.05H4C2.89543 25.05 2 24.1546 2 23.05V19.05Z" fill="white"/>
<path d="M20.9414 9.05005H19.0898V7.34497H15.3574L15.1816 5.93286L16.2598 4.34497C17.2051 2.94653 18.0977 1.63403 18.9375 0.407471L20.9414 0.589111V5.86841H22.1426V7.34497H20.9414V9.05005ZM16.9805 5.86841H19.1133V2.70435L16.9805 5.86841Z" fill="white"/>
<circle cx="9" cy="9.05005" r="4" fill="white"/>
</svg>
