<svg width="20" height="21" viewBox="0 0 20 21" fill="none" xmlns="http://www.w3.org/2000/svg">
<path d="M18.923 18.739C18.7764 18.2452 16.3891 9.42776 16.0643 8.22783C15.7408 7.02847 14.8951 6.70777 13.9424 6.70777C13.6139 6.70777 12.3469 6.70777 10.8369 6.70777V5.59966C16.613 5.0693 18.1534 0.842896 18.1534 0.842896H1.46337C1.46337 0.842896 2.75508 5.30732 8.93151 5.62409V6.70714C7.52628 6.70714 6.36911 6.70714 6.05737 6.70714C5.10466 6.70714 4.25962 7.02784 3.93514 8.22725C3.61094 9.42719 1.22393 18.2446 1.07703 18.7384C0.893918 19.3573 0.950837 20.1654 2.22732 20.1654C2.3681 20.1654 2.6873 20.1654 3.13887 20.1654V20.8429H16.7045V20.166C17.2341 20.166 17.6158 20.166 17.7711 20.166C19.0492 20.166 19.1061 19.3579 18.923 18.739ZM10.0002 7.85275C13.1276 7.85275 15.6616 10.3515 15.6616 13.4368C15.6616 16.5221 13.1276 19.0216 10.0002 19.0216C6.87393 19.0216 4.33996 16.5222 4.33996 13.4368C4.33996 10.3515 6.87387 7.85275 10.0002 7.85275Z" fill="white"/>
<path d="M6.75079 10.9794L6.16989 10.5714L5.99823 10.8089L6.57077 11.2095C6.62396 11.1289 6.68982 11.0569 6.75079 10.9794Z" fill="white"/>
<path d="M8.34822 9.72777L8.03152 9.09607L7.76615 9.22609L8.08902 9.86729C8.17597 9.82174 8.25824 9.76806 8.34822 9.72777Z" fill="white"/>
<path d="M5.88944 13.4369C5.88944 13.4039 5.89902 13.374 5.90025 13.3417H5.17953V13.6328H5.90983C5.90738 13.5663 5.88944 13.504 5.88944 13.4369Z" fill="white"/>
<path d="M14.4425 11.2996L14.3008 11.045L13.5603 11.4449C13.6074 11.5279 13.6575 11.6133 13.7008 11.6994L14.4425 11.2996Z" fill="white"/>
<path d="M12.7232 9.42174L12.4695 9.27161L12.0594 9.94543C12.1442 9.99487 12.235 10.0342 12.3179 10.0886L12.7232 9.42174Z" fill="white"/>
<path d="M10.222 9.40371V8.6554H9.92661V9.38843C9.95137 9.38843 9.97549 9.3817 10.0002 9.3817C10.0769 9.3817 10.1471 9.39972 10.222 9.40371Z" fill="white"/>
<path d="M12.383 17.7496L11.9884 16.9647C11.903 17.0129 11.8183 17.0648 11.7291 17.1051L12.117 17.879L12.383 17.7496Z" fill="white"/>
<path d="M14.1507 16.1664L13.4312 15.6622C13.378 15.744 13.3112 15.816 13.2518 15.8923L13.9787 16.4032L14.1507 16.1664Z" fill="white"/>
<path d="M14.1115 13.4365C14.1115 13.5031 14.0953 13.566 14.0923 13.6318H14.9707V13.3407H14.1028C14.1021 13.3743 14.1115 13.4035 14.1115 13.4365Z" fill="white"/>
<path d="M9.92661 17.4857V18.3163H10.222V17.4703C10.1471 17.474 10.0769 17.4923 10.0002 17.4923C9.97549 17.4923 9.95137 17.4857 9.92661 17.4857Z" fill="white"/>
<path d="M6.3755 15.3092L5.70456 15.6693L5.84657 15.9245L6.515 15.5656C6.46426 15.482 6.42065 15.3959 6.3755 15.3092Z" fill="white"/>
<path d="M8.09846 17.0115C8.01029 16.9657 7.92211 16.9218 7.83799 16.8717L7.42502 17.5492L7.67836 17.6993L8.09846 17.0115Z" fill="white"/>
<path d="M8.26647 16.2761L8.49382 16.403L9.9179 14.0526C9.97605 14.0654 10.0299 14.0874 10.0915 14.0874C10.5919 14.0874 10.9965 13.6876 10.9965 13.1951C10.9965 12.7018 10.5919 12.3021 10.0915 12.3021C9.59284 12.3021 9.18733 12.7018 9.18733 13.1951C9.18733 13.477 9.32811 13.7175 9.53534 13.8823L8.26647 16.2761ZM10.092 12.9399C10.2365 12.9399 10.3518 13.0547 10.3518 13.195C10.3518 13.336 10.2359 13.4513 10.092 13.4513C9.94884 13.4513 9.83404 13.336 9.83404 13.195C9.83404 13.0546 9.94884 12.9399 10.092 12.9399Z" fill="white"/>
</svg>
