<svg width="20" height="21" viewBox="0 0 20 21" fill="none" xmlns="http://www.w3.org/2000/svg">
<path d="M18.4962 3.71952C19.3721 4.02731 20 4.86174 20 5.84283V15.8428C20 18.19 18.0972 20.0928 15.75 20.0928H5.75C4.76891 20.0928 3.93448 19.4649 3.62668 18.589L5.72396 18.5924L15.75 18.5928C17.2688 18.5928 18.5 17.3616 18.5 15.8428V5.84283L18.496 5.79185L18.4962 3.71952ZM15.2468 0.0928345C16.4895 0.0928345 17.4968 1.10019 17.4968 2.34283V15.3396C17.4968 16.5823 16.4895 17.5896 15.2468 17.5896H2.25C1.00736 17.5896 0 16.5823 0 15.3396V2.34283C0 1.10019 1.00736 0.0928345 2.25 0.0928345H15.2468ZM11.4697 5.5625L7.58115 9.45103L6.6 8.14283C6.35147 7.81146 5.88137 7.74431 5.55 7.99283C5.21863 8.24136 5.15147 8.71146 5.4 9.04283L6.9 11.0428C7.17385 11.408 7.7076 11.4459 8.03033 11.1232L12.5303 6.62316C12.8232 6.33027 12.8232 5.8554 12.5303 5.5625C12.2374 5.26961 11.7626 5.26961 11.4697 5.5625Z" fill="white"/>
</svg>
