<svg width="20" height="21" viewBox="0 0 20 21" fill="none" xmlns="http://www.w3.org/2000/svg">
<path d="M16.129 12.557C18.271 12.557 20 14.232 20 16.307C20 18.382 18.271 20.057 16.129 20.057C13.9871 20.057 12.2581 18.382 12.2581 16.307C12.2581 16.007 12.2968 15.732 12.3742 15.4445L6.72258 12.5695C6.0129 13.332 5.00645 13.807 3.87097 13.807C1.72903 13.807 0 12.132 0 10.057C0 7.98201 1.72903 6.30701 3.87097 6.30701C5.00645 6.30701 6.0129 6.79451 6.72258 7.54451L12.3742 4.66951C12.2968 4.38201 12.2581 4.10701 12.2581 3.80701C12.2581 1.73201 13.9871 0.0570068 16.129 0.0570068C18.271 0.0570068 20 1.73201 20 3.80701C20 5.88201 18.271 7.55701 16.129 7.55701C14.9935 7.55701 13.9871 7.06951 13.2774 6.31951L7.62581 9.19451C7.70323 9.48201 7.74194 9.75701 7.74194 10.057C7.74194 10.357 7.70323 10.632 7.62581 10.9195L13.2774 13.7945C13.9871 13.032 14.9935 12.557 16.129 12.557Z" fill="white"/>
</svg>
