<svg width="20" height="21" viewBox="0 0 20 21" fill="none" xmlns="http://www.w3.org/2000/svg">
<path fill-rule="evenodd" clip-rule="evenodd" d="M5.75 2.69281C5.75 1.3121 6.89168 0.19281 8.3 0.19281H11.7C13.1084 0.19281 14.25 1.3121 14.25 2.69281H15.95C17.3584 2.69281 18.5 3.8121 18.5 5.19281C18.5 5.65304 18.1195 6.02614 17.65 6.02614H2.35C1.88056 6.02614 1.5 5.65304 1.5 5.19281C1.5 3.8121 2.64168 2.69281 4.05 2.69281H5.75ZM3.2 7.69281H16.8C17.2695 7.69281 17.65 8.0659 17.65 8.52614V17.6928C17.65 19.0736 16.5084 20.1928 15.1 20.1928H4.9C3.49168 20.1928 2.35 19.0736 2.35 17.6928V8.52614C2.35 8.0659 2.73056 7.69281 3.2 7.69281ZM5.75 11.1452V15.9071C5.75 16.4331 6.13056 16.8595 6.6 16.8595C7.06944 16.8595 7.45 16.4331 7.45 15.9071V11.1452C7.45 10.6192 7.06944 10.1928 6.6 10.1928C6.13056 10.1928 5.75 10.6192 5.75 11.1452ZM9.15 11.1452V15.9071C9.15 16.4331 9.53055 16.8595 10 16.8595C10.4695 16.8595 10.85 16.4331 10.85 15.9071V11.1452C10.85 10.6192 10.4695 10.1928 10 10.1928C9.53055 10.1928 9.15 10.6192 9.15 11.1452ZM12.55 11.1452V15.9071C12.55 16.4331 12.9305 16.8595 13.4 16.8595C13.8695 16.8595 14.25 16.4331 14.25 15.9071V11.1452C14.25 10.6192 13.8695 10.1928 13.4 10.1928C12.9305 10.1928 12.55 10.6192 12.55 11.1452ZM8.3 1.85948C7.83056 1.85948 7.45 2.23258 7.45 2.69281H12.55C12.55 2.23258 12.1695 1.85948 11.7 1.85948H8.3Z" fill="white"/>
</svg>
